<?xml version="1.0" encoding="utf-8"?>
<!-- Generator: Adobe Illustrator 22.1.0, SVG Export Plug-In . SVG Version: 6.00 Build 0)  -->
<svg version="1.1" id="Capa_1" xmlns="http://www.w3.org/2000/svg" xmlns:xlink="http://www.w3.org/1999/xlink" x="0px" y="0px"
	 viewBox="0 0 83.2 90.9" style="enable-background:new 0 0 83.2 90.9;" xml:space="preserve">
<style type="text/css">
	.st0{fill:#CCE5FF;}
	.st1{fill:none;stroke:#66B0FF;stroke-width:2;stroke-linecap:round;stroke-linejoin:round;}
</style>
<path class="st0" d="M64.2,90.9H19c-10.4,0-19-8.6-19-19V19C0,8.6,8.6,0,19,0h45.2c10.5,0,19,8.6,19,19v52.9
	C83.2,82.4,74.6,90.9,64.2,90.9z"/>
<path class="st1" d="M46.9,16.1H25.6c-2.9,0-5.3,2.4-5.3,5.3v42.7c0,2.9,2.4,5.3,5.3,5.3h32c2.9,0,5.3-2.4,5.3-5.3v-32L46.9,16.1z"
	/>
<path class="st1" d="M46.9,18.8v13.3h13.3 M52.2,45.5H30.9 M52.2,56.1H30.9 M36.2,34.8h-5.3"/>
</svg>
