<?xml version="1.0" encoding="utf-8"?>
<!-- Generator: Adobe Illustrator 22.1.0, SVG Export Plug-In . SVG Version: 6.00 Build 0)  -->
<svg version="1.1" id="Capa_1" xmlns="http://www.w3.org/2000/svg" xmlns:xlink="http://www.w3.org/1999/xlink" x="0px" y="0px"
	 viewBox="0 0 83.2 90.9" style="enable-background:new 0 0 83.2 90.9;" xml:space="preserve">
<style type="text/css">
	.st0{fill:#C0F2D8;}
	.st1{fill:none;stroke:#2BD47D;stroke-width:2;stroke-linecap:round;stroke-linejoin:round;}
</style>
<path class="st0" d="M64.2,90.9H19c-10.4,0-19-8.6-19-19V19C0,8.6,8.6,0,19,0h45.2c10.5,0,19,8.6,19,19v52.9
	C83.2,82.4,74.6,90.9,64.2,90.9z"/>
<path class="st1" d="M56.5,66.8v-5.3c0-5.9-4.8-10.7-10.7-10.7H24.5c-5.9,0-10.7,4.8-10.7,10.7v5.3"/>
<circle class="st1" cx="35.2" cy="29.4" r="10.7"/>
<path class="st1" d="M68.5,66.8v-5.3c0-4.9-3.3-9.1-8-10.3"/>
<path class="st1" d="M49.9,19.1c5.7,1.5,9.1,7.3,7.7,13c-1,3.8-3.9,6.7-7.7,7.7"/>
</svg>
